<svg width="47" height="16" viewBox="0 0 47 16" fill="none" xmlns="http://www.w3.org/2000/svg">
<rect x="42.7817" y="1.00012" width="3.15543" height="3.15543" rx="1.57772" stroke="black" stroke-width="0.394429"/>
<path d="M43.813 3.39614V1.75964H44.4267C44.5524 1.75964 44.6579 1.78148 44.7431 1.82517C44.8289 1.86885 44.8936 1.93011 44.9373 2.00895C44.9815 2.08726 45.0036 2.17862 45.0036 2.28304C45.0036 2.38798 44.9812 2.47907 44.9365 2.55632C44.8923 2.63303 44.827 2.69243 44.7407 2.73451C44.6544 2.77606 44.5484 2.79684 44.4227 2.79684H43.9856V2.55072H44.3827C44.4562 2.55072 44.5164 2.5406 44.5633 2.52036C44.6102 2.49958 44.6448 2.46949 44.6672 2.43006C44.6901 2.39011 44.7016 2.3411 44.7016 2.28304C44.7016 2.22497 44.6901 2.17543 44.6672 2.13441C44.6443 2.09286 44.6094 2.06143 44.5625 2.04012C44.5156 2.01828 44.4552 2.00736 44.3811 2.00736H44.1094V3.39614H43.813ZM44.6584 2.6546L45.0635 3.39614H44.7327L44.3348 2.6546H44.6584Z" fill="black"/>
<mask id="mask0_330_211" style="mask-type:alpha" maskUnits="userSpaceOnUse" x="0" y="3" width="13" height="13">
<path d="M0.0629883 14.6368C0.0629883 8.54799 4.99892 3.61206 11.0877 3.61206H12.451V16H0.0629883V14.6368Z" fill="#D9D9D9"/>
</mask>
<g mask="url(#mask0_330_211)">
<path d="M12.4507 14.5186H27.6245V16H14.5259L25.8198 22.5205L25.0786 23.8037L13.7349 17.2549L20.2915 28.6104L19.0083 29.3516L12.4507 17.9932V31.1162H10.9692V16H-4.20459V14.5186H8.99658L-2.43506 7.91895L-1.69385 6.63574L9.68701 13.2061L3.12354 1.83789L4.40674 1.09668L10.9692 12.4629V-0.654297H12.4507V14.5186Z" fill="white"/>
</g>
<path d="M19.062 15.9998H17.0552V3.54986H19.062V15.9998ZM25.956 15.9998H17.6684V14.1788H25.956V15.9998ZM25.6772 10.6482H17.6684V8.82715H25.6772V10.6482ZM25.956 5.35232H17.6684V3.54986H25.956V5.35232Z" fill="black"/>
<path d="M29.1371 15.9998H27.1303V6.7088H28.9699V9.2917L29.1371 9.38461V15.9998ZM29.1371 9.97923H28.6726V8.17678H29.0628C29.2486 7.7432 29.5521 7.37156 29.9733 7.06186C30.4069 6.73977 30.9643 6.57873 31.6457 6.57873C32.3022 6.57873 32.8225 6.72119 33.2066 7.00611C33.603 7.29104 33.8879 7.66887 34.0613 8.13962C34.2348 8.61036 34.3215 9.13685 34.3215 9.71908V10.3323H32.3146V9.96065C32.3146 9.34125 32.2093 8.90767 31.9987 8.65991C31.7881 8.41215 31.3917 8.28827 30.8095 8.28827C30.2025 8.28827 29.7689 8.41834 29.5087 8.67849C29.261 8.92625 29.1371 9.35983 29.1371 9.97923Z" fill="black"/>
<path d="M43.6144 15.9998H41.6075V10.6296C41.6075 9.81199 41.4527 9.22356 41.143 8.86431C40.8333 8.49267 40.251 8.30685 39.3962 8.30685C38.8512 8.30685 38.4052 8.38737 38.0583 8.54842C37.7115 8.69707 37.4513 8.94483 37.2779 9.2917C37.1045 9.62617 37.0178 10.0845 37.0178 10.6668H36.6647L36.4975 8.49267H36.9434C37.0797 8.1582 37.2841 7.8485 37.5566 7.56357C37.8292 7.27865 38.176 7.04328 38.5972 6.85746C39.0308 6.67164 39.5449 6.57873 40.1395 6.57873C40.9447 6.57873 41.6013 6.73358 42.1092 7.04328C42.6171 7.35298 42.995 7.78036 43.2427 8.32544C43.4905 8.87051 43.6144 9.4961 43.6144 10.2022V15.9998ZM37.0178 15.9998H35.0109V6.76455H36.8505V9.53326L37.0178 9.62617V15.9998Z" fill="black"/>
</svg>
