<svg width="86" height="29" viewBox="0 0 86 29" fill="none" xmlns="http://www.w3.org/2000/svg">
<rect x="78.8867" y="0.938477" width="6.11321" height="6.11321" rx="3.05661" stroke="black" stroke-width="0.764152"/>
<path d="M80.8848 5.58029V2.4098H82.0737C82.3173 2.4098 82.5216 2.45212 82.6867 2.53674C82.8529 2.62137 82.9783 2.74006 83.0629 2.89281C83.1486 3.04452 83.1914 3.22152 83.1914 3.4238C83.1914 3.62712 83.1481 3.8036 83.0614 3.95325C82.9757 4.10186 82.8493 4.21694 82.6821 4.29847C82.5149 4.37897 82.3095 4.41922 82.066 4.41922H81.2192V3.94241H81.9886C82.131 3.94241 82.2476 3.9228 82.3384 3.88358C82.4292 3.84333 82.4963 3.78502 82.5397 3.70865C82.5841 3.63124 82.6062 3.5363 82.6062 3.4238C82.6062 3.31131 82.5841 3.21532 82.5397 3.13586C82.4953 3.05536 82.4277 2.99446 82.3369 2.95318C82.2461 2.91087 82.1289 2.88971 81.9855 2.88971H81.4591V5.58029H80.8848ZM82.5226 4.14366L83.3075 5.58029H82.6666L81.8957 4.14366H82.5226Z" fill="black"/>
<mask id="mask0_224_983" style="mask-type:alpha" maskUnits="userSpaceOnUse" x="0" y="4" width="24" height="25">
<path d="M0 25.4202C0 13.624 9.56268 4.06136 21.3588 4.06136H24V28.0614H0V25.4202Z" fill="#D9D9D9"/>
</mask>
<g mask="url(#mask0_224_983)">
<path d="M23.9995 25.1904H53.397V28.0615H28.022L49.8999 40.6934L48.4644 43.1797L26.4858 30.4902L39.1899 52.4941L36.7036 53.9297L23.9995 31.9248V57.3457H21.1294V28.0615H-8.26807V25.1904H17.3071L-4.83936 12.4043L-3.40381 9.91797L18.6421 22.6465L5.92822 0.625L8.41455 -0.810547L21.1294 21.2119V-4.2041H23.9995V25.1904Z" fill="#EC662C"/>
</g>
<path d="M32.9334 28.0614H29.0454V3.94144H32.9334V28.0614ZM46.2894 28.0614H30.2334V24.5334H46.2894V28.0614ZM45.7494 17.6934H30.2334V14.1654H45.7494V17.6934ZM46.2894 7.43344H30.2334V3.94144H46.2894V7.43344Z" fill="black"/>
<path d="M52.4525 28.0614H48.5645V10.0614H52.1285V15.0654L52.4525 15.2454V28.0614ZM52.4525 16.3974H51.5525V12.9054H52.3085C52.6685 12.0654 53.2565 11.3454 54.0725 10.7454C54.9125 10.1214 55.9925 9.80944 57.3125 9.80944C58.5845 9.80944 59.5925 10.0854 60.3365 10.6374C61.1045 11.1894 61.6565 11.9214 61.9925 12.8334C62.3285 13.7454 62.4965 14.7654 62.4965 15.8934V17.0814H58.6085V16.3614C58.6085 15.1614 58.4045 14.3214 57.9965 13.8414C57.5885 13.3614 56.8205 13.1214 55.6925 13.1214C54.5165 13.1214 53.6765 13.3734 53.1725 13.8774C52.6925 14.3574 52.4525 15.1974 52.4525 16.3974Z" fill="black"/>
<path d="M80.5001 28.0614H76.6121V17.6574C76.6121 16.0734 76.3121 14.9334 75.7121 14.2374C75.1121 13.5174 73.9841 13.1574 72.3281 13.1574C71.2721 13.1574 70.4081 13.3134 69.7361 13.6254C69.0641 13.9134 68.5601 14.3934 68.2241 15.0654C67.8881 15.7134 67.7201 16.6014 67.7201 17.7294H67.0361L66.7121 13.5174H67.5761C67.8401 12.8694 68.2361 12.2694 68.7641 11.7174C69.2921 11.1654 69.9641 10.7094 70.7801 10.3494C71.6201 9.98944 72.6161 9.80944 73.7681 9.80944C75.3281 9.80944 76.6001 10.1094 77.5841 10.7094C78.5681 11.3094 79.3001 12.1374 79.7801 13.1934C80.2601 14.2494 80.5001 15.4614 80.5001 16.8294V28.0614ZM67.7201 28.0614H63.8321V10.1694H67.3961V15.5334L67.7201 15.7134V28.0614Z" fill="black"/>
</svg>
