<svg width="1450" height="364" viewBox="0 0 1450 364" fill="none" xmlns="http://www.w3.org/2000/svg">
<path d="M145.99 41.7383H158.342V154.455H45.625V142.104C45.625 141.765 45.6275 141.427 45.6309 141.09H127.187L126.972 140.966L55.1025 99.4717C57.0068 95.419 59.1746 91.5147 61.583 87.7803L133.187 129.12L133.401 129.244L133.277 129.029L91.9775 57.4961C95.7209 55.1014 99.6341 52.949 103.694 51.0596L144.853 122.347L144.977 122.562V41.7432C145.314 41.7398 145.652 41.7383 145.99 41.7383Z" fill="#EC662C" fill-opacity="0.17" stroke="#EC662C" stroke-width="0.133024"/>
<path d="M145.99 41.7383H158.342V154.455H45.625V142.104C45.625 86.6736 90.5603 41.7383 145.99 41.7383Z" stroke="#EC662C" stroke-opacity="0.46" stroke-width="0.133024"/>
<rect x="144.976" y="-311.933" width="13.3658" height="918.867" stroke="#EC662C" stroke-opacity="0.46" stroke-width="0.133024"/>
<rect x="45.3898" y="-311.933" width="13.3658" height="918.867" stroke="#EC662C" stroke-opacity="0.46" stroke-width="0.133024"/>
<rect x="-77.3144" y="-235.725" width="13.3658" height="892.648" transform="rotate(-30 -77.3144 -235.725)" stroke="#EC662C" stroke-opacity="0.46" stroke-width="0.133024"/>
<rect x="-287.686" y="-98.4384" width="13.3658" height="1006.54" transform="rotate(-60 -287.686 -98.4384)" stroke="#EC662C" stroke-opacity="0.46" stroke-width="0.133024"/>
<rect x="-434.933" y="154.014" width="12.8669" height="2252.87" transform="rotate(-90 -434.933 154.014)" stroke="#EC662C" stroke-opacity="0.46" stroke-width="0.133024"/>
<rect x="-434.933" y="55.0136" width="12.8669" height="2252.87" transform="rotate(-90 -434.933 55.0136)" stroke="#EC662C" stroke-opacity="0.46" stroke-width="0.133024"/>
<path d="M169.63 154.071V41.3727H186.222V154.071H169.63ZM177.769 154.071V140.454H247.893V154.071H177.769ZM177.769 102.574V88.9565H242.258V102.574H177.769ZM177.769 54.9904V41.3727H246.484V54.9904H177.769ZM268.678 154.071V74.2431H284.174V94.1219H284.956V154.071H268.678ZM284.956 112.435L282.921 93.4958C284.8 86.713 288.035 81.5476 292.626 77.9997C297.218 74.4518 302.696 72.6778 309.061 72.6778C311.461 72.6778 313.131 72.8865 314.07 73.3039V88.6435C313.548 88.4348 312.818 88.3304 311.879 88.3304C310.94 88.2261 309.792 88.1739 308.435 88.1739C300.609 88.1739 294.713 90.2087 290.748 94.2784C286.887 98.3481 284.956 104.4 284.956 112.435ZM328.598 154.071V74.2431H344.094V93.0262H344.876V154.071H328.598ZM385.26 154.071V102.731C385.26 97.2002 383.851 93.0784 381.034 90.3653C378.321 87.6522 374.251 86.2956 368.825 86.2956C364.129 86.2956 359.955 87.3391 356.303 89.4261C352.755 91.5131 349.937 94.3828 347.85 98.035C345.868 101.687 344.876 106.018 344.876 111.027L342.842 91.9305C345.45 85.9825 349.468 81.2868 354.894 77.8432C360.32 74.3996 366.633 72.6778 373.834 72.6778C382.39 72.6778 389.121 75.0779 394.025 79.878C398.93 84.6782 401.382 91.0435 401.382 98.9742V154.071H385.26Z" fill="#2C2C24"/>
</svg>
