<svg width="302" height="214" viewBox="0 0 302 214" fill="none" xmlns="http://www.w3.org/2000/svg">
<path d="M47.1426 19.2712H51.377V57.907H12.7412V53.6726C12.7412 53.5569 12.742 53.4414 12.7432 53.3259H40.6982L40.624 53.283L15.9902 39.0613C16.6431 37.6717 17.3861 36.3329 18.2119 35.0525L42.7549 49.2234L42.8281 49.2654L42.7852 49.1921L28.6299 24.6726C29.9128 23.8519 31.2539 23.1141 32.6455 22.4666L46.7529 46.9011L46.7959 46.9744V19.2722C46.9113 19.2711 47.0269 19.2712 47.1426 19.2712Z" fill="#EC662C" fill-opacity="0.17" stroke="#EC662C" stroke-width="0.0455958"/>
<path d="M47.1426 19.2712H51.377V57.907H12.7412V53.6726C12.7414 34.6735 28.1435 19.2714 47.1426 19.2712Z" stroke="#EC662C" stroke-opacity="0.46" stroke-width="0.0455958"/>
<rect x="46.7962" y="-101.955" width="4.58131" height="314.954" stroke="#EC662C" stroke-opacity="0.46" stroke-width="0.0455958"/>
<rect x="12.6615" y="-101.955" width="4.58131" height="314.954" stroke="#EC662C" stroke-opacity="0.46" stroke-width="0.0455958"/>
<rect x="-29.3985" y="-75.8325" width="4.58131" height="305.968" transform="rotate(-30 -29.3985 -75.8325)" stroke="#EC662C" stroke-opacity="0.46" stroke-width="0.0455958"/>
<rect x="-101.508" y="-28.7769" width="4.58131" height="345.005" transform="rotate(-60 -101.508 -28.7769)" stroke="#EC662C" stroke-opacity="0.46" stroke-width="0.0455958"/>
<rect x="-151.977" y="57.7536" width="4.41032" height="772.201" transform="rotate(-90 -151.977 57.7536)" stroke="#EC662C" stroke-opacity="0.46" stroke-width="0.0455958"/>
<rect x="-151.977" y="23.8219" width="4.41032" height="772.201" transform="rotate(-90 -151.977 23.8219)" stroke="#EC662C" stroke-opacity="0.46" stroke-width="0.0455958"/>
<path d="M55.2456 57.9893V19.3602H60.9326V57.9893H55.2456ZM58.0355 57.9893V53.3216H82.0713V57.9893H58.0355ZM58.0355 40.3379V35.6703H80.1398V40.3379H58.0355ZM58.0355 24.0279V19.3602H81.5884V24.0279H58.0355ZM89.1956 57.9893V30.627H94.5071V37.4408H94.7754V57.9893H89.1956ZM94.7754 43.718L94.0779 37.2262C94.7217 34.9013 95.8305 33.1308 97.4043 31.9147C98.9781 30.6986 100.856 30.0905 103.038 30.0905C103.86 30.0905 104.433 30.1621 104.755 30.3051V35.563C104.576 35.4914 104.325 35.4557 104.003 35.4557C103.681 35.4199 103.288 35.402 102.823 35.402C100.141 35.402 98.1196 36.0995 96.7605 37.4944C95.4371 38.8894 94.7754 40.9639 94.7754 43.718ZM109.734 57.9893V30.627H115.046V37.0652H115.314V57.9893H109.734ZM129.156 57.9893V40.3916C129.156 38.4959 128.673 37.0831 127.707 36.1531C126.777 35.2232 125.382 34.7582 123.522 34.7582C121.913 34.7582 120.482 35.1159 119.23 35.8312C118.014 36.5466 117.049 37.5302 116.333 38.7821C115.654 40.0339 115.314 41.5183 115.314 43.2351L114.616 36.6896C115.511 34.6509 116.888 33.0414 118.747 31.861C120.607 30.6807 122.771 30.0905 125.239 30.0905C128.172 30.0905 130.479 30.9132 132.16 32.5585C133.841 34.2038 134.682 36.3856 134.682 39.104V57.9893H129.156Z" fill="#2C2C24"/>
</svg>
